<svg xmlns="http://www.w3.org/2000/svg" viewBox="0 0 500 500"><g id="freepik--Shadow--inject-114"><ellipse id="freepik--path--inject-114" cx="250" cy="416.24" rx="193.89" ry="11.32" style="fill:#f5f5f5"></ellipse></g><g id="freepik--Chat--inject-114"><path d="M132.72,247.68H256l7.7,8V207.17A10.7,10.7,0,0,0,253,196.47H132.72A10.7,10.7,0,0,0,122,207.17V237A10.7,10.7,0,0,0,132.72,247.68Z" style="fill:#AB278F"></path><path d="M132.72,247.68H256l7.7,8V207.17A10.7,10.7,0,0,0,253,196.47H132.72A10.7,10.7,0,0,0,122,207.17V237A10.7,10.7,0,0,0,132.72,247.68Z" style="fill:#fff;opacity:0.4;isolation:isolate"></path><line x1="249" y1="209" x2="138" y2="209" style="fill:none;stroke:#AB278F;stroke-linecap:round;stroke-linejoin:round;stroke-width:2px"></line><line x1="249" y1="221" x2="138" y2="221" style="fill:none;stroke:#AB278F;stroke-linecap:round;stroke-linejoin:round;stroke-width:2px"></line><line x1="227" y1="233" x2="138" y2="233" style="fill:none;stroke:#AB278F;stroke-linecap:round;stroke-linejoin:round;stroke-width:2px"></line><path d="M132.72,247.68H256l7.7,8V207.17A10.7,10.7,0,0,0,253,196.47H132.72A10.7,10.7,0,0,0,122,207.17V237A10.7,10.7,0,0,0,132.72,247.68Z" style="fill:#fff;opacity:0.30000000000000004;isolation:isolate"></path><path d="M221,180.68H97.73l-7.7,8V140.17a10.7,10.7,0,0,1,10.69-10.7H221a10.7,10.7,0,0,1,10.69,10.7V170A10.7,10.7,0,0,1,221,180.68Z" style="fill:#AB278F"></path><line x1="137" y1="142" x2="216" y2="142" style="fill:none;stroke:#fff;stroke-linecap:round;stroke-linejoin:round;stroke-width:2px"></line><line x1="137" y1="154" x2="216" y2="154" style="fill:none;stroke:#fff;stroke-linecap:round;stroke-linejoin:round;stroke-width:2px"></line><line x1="137" y1="166" x2="194" y2="166" style="fill:none;stroke:#fff;stroke-linecap:round;stroke-linejoin:round;stroke-width:2px"></line><path d="M176.72,113.68H256l7.7,8V83.17A10.7,10.7,0,0,0,253,72.48H176.72A10.7,10.7,0,0,0,166,83.17V103A10.7,10.7,0,0,0,176.72,113.68Z" style="fill:#AB278F"></path><path d="M176.72,113.68H256l7.7,8V83.17A10.7,10.7,0,0,0,253,72.48H176.72A10.7,10.7,0,0,0,166,83.17V103A10.7,10.7,0,0,0,176.72,113.68Z" style="fill:#fff;opacity:0.4;isolation:isolate"></path><line x1="249" y1="87" x2="182" y2="87" style="fill:none;stroke:#AB278F;stroke-linecap:round;stroke-linejoin:round;stroke-width:2px"></line><line x1="227" y1="99" x2="182" y2="99" style="fill:none;stroke:#AB278F;stroke-linecap:round;stroke-linejoin:round;stroke-width:2px"></line><path d="M176.72,113.68H256l7.7,8V83.17A10.7,10.7,0,0,0,253,72.48H176.72A10.7,10.7,0,0,0,166,83.17V103A10.7,10.7,0,0,0,176.72,113.68Z" style="fill:#fff;opacity:0.30000000000000004;isolation:isolate"></path></g><g id="freepik--character-1--inject-114"><path d="M127.41,146a25,25,0,1,1-25-25A24.84,24.84,0,0,1,127.41,146Z" style="fill:#AB278F"></path><path d="M127.41,146a25,25,0,1,1-25-25A24.84,24.84,0,0,1,127.41,146Z" style="fill:#fff;opacity:0.5;isolation:isolate"></path><path d="M120.6,163.12a24.95,24.95,0,0,1-36,.31c1.17-.22,2.44-.45,3.74-.65,1.1-.18,2.24-.35,3.36-.48a154.22,154.22,0,0,1,17.84-1.24c.73,0,1.45.08,2.17.08,1.86.11,3.63.3,5.16.49A7.88,7.88,0,0,1,120.6,163.12Z" style="fill:#2e353a"></path><path d="M115.05,127.42s1.33,8.91-4.42,13.08-5.75-16-5.75-16Z" style="fill:#2e353a"></path><path d="M91.67,162.25c3.83,3.48,13.21,2.19,13.21,2.19s5.86-1.6,4.63-3.43c-3.45-.57-5.12-2.18-5.81-4.24a10,10,0,0,1-.35-3.94,20.71,20.71,0,0,1,.29-2.2L92,142C93.56,147.71,95.42,158.14,91.67,162.25Z" style="fill:#e4897b"></path><path d="M94.72,147.5c.46,7,6.18,8.88,9,9.27a10,10,0,0,1-.35-3.94Z" style="opacity:0.2;isolation:isolate"></path><path d="M93.94,149.11a9.83,9.83,0,0,0,11.29,3.81,11,11,0,0,0,6.25-5.09,11.2,11.2,0,0,0,.52-1c2.83-6.62,3.73-18.2-3.27-22.54a10.66,10.66,0,0,0-16.28,8C91.59,140,90.72,144.53,93.94,149.11Z" style="fill:#e4897b"></path><path d="M103.73,136.42c-.15.61.14,1.18.55,1.25s.83-.38.94-1-.15-1.18-.55-1.25S103.85,135.78,103.73,136.42Z" style="fill:#2e353a"></path><path d="M110.8,137.62c-.15.61.14,1.19.55,1.26s.82-.39.93-1-.14-1.19-.55-1.26S110.9,137,110.8,137.62Z" style="fill:#2e353a"></path><path d="M108.5,137.55a22.9,22.9,0,0,0,2.07,5.85,3.65,3.65,0,0,1-3.1,0Z" style="fill:#de5753"></path><path d="M101.93,133.75a.38.38,0,0,0,.38-.08,3,3,0,0,1,2.56-.83.37.37,0,1,0,.18-.72h0a3.69,3.69,0,0,0-3.24,1,.37.37,0,0,0,0,.52h0A.44.44,0,0,0,101.93,133.75Z" style="fill:#2e353a"></path><path d="M105.91,146.51h0a5.67,5.67,0,0,1-4.63-2.52.19.19,0,0,1,.07-.27.19.19,0,0,1,.26.06h0a5.45,5.45,0,0,0,4.31,2.32.2.2,0,0,1,.19.19v0a.19.19,0,0,1-.19.19Z" style="fill:#2e353a"></path><path d="M114.25,135.7a.39.39,0,0,0,.21.06.37.37,0,0,0,.26-.46h0a3.69,3.69,0,0,0-2.29-2.51.36.36,0,0,0-.46.25h0a.37.37,0,0,0,.25.46h0a3,3,0,0,1,1.78,2A.35.35,0,0,0,114.25,135.7Z" style="fill:#2e353a"></path><path d="M93.38,157.83l11.09,5,.65-4,4.07,1.43a3.33,3.33,0,0,1,2.22,3.51l-.46,4.4-5.62-3.08-2.8,4-13.32-6.41Z" style="fill:#AB278F"></path><path d="M102.44,126.5a21.6,21.6,0,0,0,6.58,4l-2.14-4s5,4.4,10.12,6.26c0,0,2.25-11.13-10.88-15.51C95,113.55,93,121,93,121c-7-2.12-14.9,17.88.32,27.18,0,0-1.22-7.79.65-9.3S103.12,132.63,102.44,126.5Z" style="fill:#2e353a"></path><path d="M88,138a7.45,7.45,0,0,0,3.56,4.41c2.29,1.23,4-.69,3.84-3.14-.16-2.19-1.51-5.53-4-5.72S87.37,135.68,88,138Z" style="fill:#e4897b"></path></g></svg>