<svg xmlns="http://www.w3.org/2000/svg" viewBox="0 0 500 500"><g id="freepik--magnifiyng-glass--inject-100"><path d="M436.22,251.66a9.26,9.26,0,0,1-16.05,6.3l-.61-.74,0,0a9.26,9.26,0,0,1,14.2-11.85l.63.76h0A9.28,9.28,0,0,1,436.22,251.66Z" style="fill:#455a64"></path><path d="M436.22,251.66a9.26,9.26,0,0,1-16.05,6.3l-.61-.74,0,0L381,210.65l16.25-9.38,36.51,44.08.63.76h0A9.28,9.28,0,0,1,436.22,251.66Z" style="fill:#455a64"></path><path d="M404.32,238.81A9.26,9.26,0,0,0,418.53,227h0l-4.77-5.75h0a9.26,9.26,0,0,1-14.21,11.84Z" style="fill:#BA68C8"></path><path d="M396.63,128.06a21.5,21.5,0,0,1,8.27,2.69l-11.73-6.82h0c-7.87-5.41-19.2-5.09-31.79,2.17-23.77,13.73-43.05,47.12-43.05,74.58,0,13.49,4.59,23.13,12.16,27.71l.16.1,12.52,7.21a21.6,21.6,0,0,1-5.71-5.43,27.91,27.91,0,0,0,9.23-.53c1.1-.24,2.21-.53,3.34-.89a2.75,2.75,0,0,1-.43-.17,11.23,11.23,0,0,1-1.72-1,12.05,12.05,0,0,1-2.6-2.46,17.31,17.31,0,0,1-2.44-4.25,17.49,17.49,0,0,1-2.46.18,13.4,13.4,0,0,1-5.66-1.13,10.81,10.81,0,0,1-1.21-.65c-.35-.22-.7-.48-1-.74a47.62,47.62,0,0,1-1.05-10.3c0-27.45,19.28-60.85,43.07-74.58a49.26,49.26,0,0,1,9.6-4.3,10.86,10.86,0,0,1,2.52,1.45,12.42,12.42,0,0,1,2.19,2.16,17.4,17.4,0,0,1,2.45,4.26,17.59,17.59,0,0,1,2.47-.17,12.75,12.75,0,0,1,6.48,1.57,10.37,10.37,0,0,1,1.43.94c-.18-.8-.37-1.59-.6-2.34A28.32,28.32,0,0,0,396.63,128.06Z" style="fill:#263238"></path><path d="M404.9,130.75l-.68-.37a21.48,21.48,0,0,0-7.59-2.32,27.35,27.35,0,0,0-8.53.39,35.76,35.76,0,0,0-4,1,49.26,49.26,0,0,0-9.6,4.3c-23.79,13.73-43.07,47.13-43.07,74.58a47.62,47.62,0,0,0,1.05,10.3c.13.61.28,1.19.43,1.77a29.2,29.2,0,0,0,4.56,9.85,21.77,21.77,0,0,0,3.25,3.57,20.89,20.89,0,0,0,2.46,1.86c7.85,5.07,19,4.63,31.3-2.49,23.79-13.73,43.07-47.12,43.07-74.58C417.54,144.88,412.71,135.23,404.9,130.75Zm-4.7,8a10.37,10.37,0,0,1,1.43.94,13.77,13.77,0,0,1,2.05,2.06c3,3.76,4.59,9.61,4.59,16.89,0,24-17.6,54.52-38.43,66.55-5.25,3-10.3,4.64-14.59,4.64a13.31,13.31,0,0,1-5.22-1,2.75,2.75,0,0,1-.43-.17,11.23,11.23,0,0,1-1.72-1,11.81,11.81,0,0,1-1.86-1.62h0c-.25-.26-.49-.55-.73-.84a17.31,17.31,0,0,1-2.44-4.25,33.38,33.38,0,0,1-2.14-12.64c0-.32,0-.63,0-1,.44-23.9,17.85-53.73,38.41-65.59.47-.27.95-.54,1.43-.79a31.79,31.79,0,0,1,10.69-3.67,17.59,17.59,0,0,1,2.47-.17,13.37,13.37,0,0,1,5.19,1A8.51,8.51,0,0,1,400.2,138.74Z" style="fill:#455a64"></path><path d="M408.27,158.63c0,24-17.6,54.52-38.43,66.55a41.23,41.23,0,0,1-3.9,2,0,0,0,0,1,0,0,26.51,26.51,0,0,1-10.66,2.62,13.31,13.31,0,0,1-5.22-1,2.75,2.75,0,0,1-.43-.17,11.23,11.23,0,0,1-1.72-1,12.05,12.05,0,0,1-2.6-2.46c-.26-.35-.53-.69-.77-1.08.47,0,1,.07,1.46.07,4.29,0,9.34-1.61,14.59-4.64C381.39,207.56,399,177.08,399,153c0-6.61-1.31-12-3.8-15.79a11.74,11.74,0,0,1,5,1.49,10.37,10.37,0,0,1,1.43.94,13.77,13.77,0,0,1,2.05,2.06c2.64,3.31,4.19,8.23,4.51,14.32C408.24,156.9,408.27,157.76,408.27,158.63Z" style="fill:#37474f"></path><path d="M404.25,155.86c0,24-17.6,54.52-38.43,66.55-5.25,3-10.29,4.64-14.59,4.64a13.26,13.26,0,0,1-5.21-1h0c-.25-.26-.49-.55-.73-.84a17.31,17.31,0,0,1-2.44-4.25,33.38,33.38,0,0,1-2.14-12.64c0-.32,0-.63,0-1,.44-23.9,17.85-53.73,38.41-65.59.47-.27.95-.54,1.43-.79a31.79,31.79,0,0,1,10.69-3.67,17.59,17.59,0,0,1,2.47-.17,13.37,13.37,0,0,1,5.19,1c.27.27.52.56.76.85C402.66,142.73,404.25,148.58,404.25,155.86Z" style="fill:#fff;opacity:0.6000000000000001"></path></g></svg>